<?xml version="1.0" encoding="UTF-8"?>
<svg id="Layer_2" data-name="Layer 2" xmlns="http://www.w3.org/2000/svg" viewBox="0 0 771 374">
  <defs>
    <style>
      .cls-1, .cls-2, .cls-3 {
        fill: none;
      }

      .cls-2 {
        stroke: #ff0006;
      }

      .cls-2, .cls-3 {
        stroke-miterlimit: 10;
        stroke-width: 3px;
      }

      .cls-3 {
        stroke: red;
      }

      .cls-4 {
        fill: #fff;
      }

      .cls-5 {
        fill: #ff0006;
      }
    </style>
  </defs>
  <g id="Layer_1-2" data-name="Layer 1">
    <rect class="cls-4" x="5.04" width="763" height="374"/>
    <g>
      <g>
        <g>
          <path class="cls-5" d="m272.79,114.73c1.89.03,3.43.26,4.61.72,1.18.45,2.06,1.07,2.63,1.84.57.77.92,1.59,1.04,2.46.12.87.07,1.69-.17,2.48-1.3,3.93-2.7,8.02-4.19,12.28-1.49,4.26-2.99,8.46-4.48,12.61.56-.03,1.12-.05,1.68-.05.56,0,1.12.02,1.68.06,4.24-.47,8.28-1.43,12.11-2.89,3.83-1.46,7.15-3.34,9.95-5.65,2.8-2.3,4.95-4.98,6.44-8.01,1.5-3.03,2.03-6.32,1.61-9.86-.38-2.77-2.08-5.04-5.09-6.78-3.01-1.74-7.24-2.45-12.68-2.12-5.58.34-10.8,1.18-15.65,2.53-4.85,1.34-9.22,3.01-13.09,5-3.87,1.99-7.24,4.17-10.1,6.55-2.87,2.38-5.17,4.76-6.92,7.14-1.75,2.38-2.88,4.68-3.41,6.88-.53,2.2-.4,4.05.39,5.54-3.58-.13-6.42-.73-8.51-1.79-2.09-1.06-3.55-2.32-4.38-3.78-.82-1.45-1.09-3.03-.81-4.73.28-1.7,1.01-3.21,2.19-4.54,2.42-2.88,5.75-5.55,10.01-8.01,4.26-2.46,9.1-4.65,14.51-6.55,5.41-1.9,11.22-3.5,17.4-4.79,6.19-1.28,12.45-2.16,18.8-2.61,4.39-.34,8.61-.29,12.66.12,4.05.42,7.59,1.27,10.6,2.56,3.02,1.29,5.35,3.04,6.99,5.25,1.64,2.21,2.24,4.94,1.81,8.19-.37,3.1-1.6,5.94-3.68,8.52-2.08,2.58-4.66,4.89-7.72,6.93-3.06,2.04-6.39,3.79-9.97,5.23-3.59,1.44-7.08,2.51-10.46,3.21,1.99.51,3.81,1.13,5.47,1.87,1.65.74,3.05,1.62,4.2,2.63,1.15,1.02,1.99,2.17,2.52,3.47.53,1.3.71,2.72.52,4.27-.29,2.19-1.25,4.21-2.89,6.06-1.64,1.85-3.79,3.52-6.47,5.01-2.68,1.49-5.79,2.73-9.33,3.72-3.55.98-7.34,1.71-11.37,2.16-5.08.59-10.13.7-15.15.34-5.03-.36-9.54-1.14-13.53-2.33-3.99-1.19-7.2-2.76-9.63-4.72-2.43-1.95-3.55-4.23-3.36-6.83.07-1.12.45-2.09,1.14-2.9.69-.81,1.52-1.47,2.5-1.99.98-.51,2.06-.86,3.25-1.04,1.18-.18,2.37-.2,3.57-.06-.55,2.41-.33,4.68.67,6.78,1,2.11,2.65,3.92,4.95,5.42,2.3,1.51,5.15,2.59,8.55,3.26,3.4.67,7.22.77,11.46.3,3.75-.44,6.98-1.16,9.69-2.16,2.7-1,4.94-2.14,6.72-3.4,1.78-1.26,3.1-2.59,3.96-3.97.86-1.38,1.36-2.64,1.5-3.77.11-1.69-.29-3.11-1.21-4.29-.91-1.17-2.16-2.13-3.74-2.87-1.59-.74-3.44-1.26-5.55-1.55-2.12-.29-4.29-.37-6.52-.23-1.43,4.08-2.81,7.89-4.14,11.44-1.33,3.55-2.44,6.57-3.33,9.08-2.11-.15-4.05-.45-5.83-.91-1.78-.45-3.22-1.1-4.32-1.94-1.1-.84-1.78-1.92-2.03-3.24-.25-1.31.08-2.95,1.02-4.89,1.11-2.45,2.48-5.56,4.11-9.33,1.62-3.77,3.38-7.8,5.25-12.08,1.88-4.28,3.82-8.63,5.82-13.06,2.01-4.43,3.91-8.48,5.72-12.16Z"/>
          <path class="cls-5" d="m343.26,135.65c.17,1.67-.61,3.26-2.34,4.76,1.48.12,2.19.39,2.15.81-1,3.21-2.14,6.27-3.43,9.19-1.29,2.91-2.37,5.87-3.24,8.86-.83,2.43-.94,3.59-.31,3.48.62-.11,1.72-1,3.3-2.67,1.58-1.67,3.47-3.87,5.69-6.59,2.21-2.72,4.5-5.49,6.85-8.29.08.14.21.35.41.66.19.3.32.68.38,1.13.06.45,0,1.02-.16,1.69-.17.68-.58,1.39-1.24,2.12-1.83,2.14-3.45,4.04-4.85,5.7-1.4,1.66-2.75,3.16-4.03,4.5-1.28,1.34-2.61,2.57-3.98,3.71-1.37,1.13-2.89,2.31-4.56,3.53-.94.69-1.93,1.15-2.96,1.39-1.04.24-2.01.3-2.93.18-.92-.12-1.7-.4-2.36-.85-.66-.45-1.04-1.02-1.15-1.71-.07-1.11.06-2.52.37-4.22-2.05,1.95-4.26,3.71-6.61,5.29-2.36,1.58-4.47,2.42-6.36,2.54-1.81.11-3.21-.17-4.2-.85-.99-.67-1.58-1.6-1.8-2.78-.32-1.87-.26-4.03.18-6.47.45-2.44,1.26-4.94,2.43-7.5,1.17-2.56,2.65-5.08,4.42-7.57,1.77-2.49,3.79-4.73,6.05-6.72,2.26-1.99,4.73-3.61,7.42-4.86,2.69-1.25,5.5-1.93,8.43-2.04,2.09-.13,3.96.09,5.61.66,1.64.57,2.58,1.54,2.8,2.93Zm-14.91,7c2.21-.48,3.97-1.24,5.27-2.26,1.3-1.02,2.19-2.18,2.68-3.47.11-.56-.07-1.13-.52-1.7-.45-.57-1.36-.56-2.73,0-1.23.43-2.51,1.31-3.83,2.65-1.32,1.34-2.59,2.92-3.81,4.75-1.22,1.83-2.36,3.78-3.42,5.88-1.06,2.1-1.99,4.15-2.78,6.15-.79,2.01-1.39,3.83-1.82,5.47-.43,1.64-.61,2.91-.56,3.81.04.7.43.96,1.15.77.72-.18,1.55-.62,2.49-1.31.94-.69,1.96-1.52,3.05-2.49,1.1-.98,2.04-1.94,2.82-2.9.83-2.43,1.75-4.9,2.75-7.41,1-2.51,1.93-4.81,2.78-6.89-1.75-.03-2.93-.38-3.53-1.05Z"/>
          <path class="cls-5" d="m355.6,162.52c.2.97.68,1.62,1.43,1.96.76.34,1.48.49,2.18.45,1.4.06,2.62-.28,3.67-1.01,1.04-.73,1.82-1.49,2.33-2.29.91-1.17,1.14-2.26.7-3.24-.45-.99-1.26-1.95-2.43-2.9-1.18-.94-2.57-1.89-4.16-2.84-1.6-.95-3.06-1.97-4.38-3.04-1.33-1.07-2.34-2.22-3.04-3.44-.7-1.22-.79-2.58-.25-4.08,1.19-3.36,3.41-6.16,6.63-8.38,3.22-2.23,7.17-3.51,11.84-3.87,4.18-.39,7.33-.04,9.46,1.05,2.13,1.1,3.41,2.82,3.83,5.18.32,1.87-.15,3.62-1.42,5.23-1.27,1.62-2.85,2.89-4.76,3.81-1.9.92-3.85,1.37-5.85,1.35-2-.02-3.6-.76-4.81-2.23,2.21-.55,3.99-1.73,5.35-3.53,1.36-1.8,2.27-3.55,2.73-5.26.32-1.63.06-2.51-.79-2.63-.85-.12-1.92.15-3.21.83-1.29.67-2.6,1.56-3.93,2.65-1.33,1.1-2.36,2.08-3.07,2.97-1.04,1.26-1.47,2.33-1.27,3.23.19.9.75,1.72,1.67,2.47.92.75,2.07,1.49,3.44,2.21,1.37.72,2.68,1.5,3.92,2.34,1.24.83,2.3,1.8,3.17,2.9.87,1.1,1.28,2.43,1.24,3.97-.03,2.94-1.47,5.53-4.31,7.77-2.84,2.24-6.67,3.5-11.48,3.79-2.3.14-4.36.02-6.17-.36-1.81-.38-3.28-.97-4.41-1.78-1.14-.81-1.91-1.77-2.33-2.9-.42-1.13-.35-2.34.2-3.63.41-1.29,1.27-2.39,2.58-3.31,1.31-.92,2.74-1.53,4.3-1.84,1.56-.3,3.12-.26,4.68.14,1.56.4,2.88,1.29,3.94,2.7-2.21.55-4.05,1.31-5.53,2.28-1.48.97-2.05,2.07-1.69,3.3Z"/>
          <path class="cls-5" d="m399.2,164.59c-1.02.55-2.37,1-4.07,1.35-1.7.35-3.42.42-5.19.21-1.76-.21-3.43-.81-4.99-1.8-1.57-.99-2.66-2.58-3.28-4.79-.54-1.93-.58-4.09-.13-6.5.45-2.41,1.26-4.82,2.45-7.24,1.18-2.42,2.7-4.75,4.56-7,1.86-2.25,3.96-4.23,6.31-5.95,2.34-1.72,4.87-3.04,7.58-3.98,2.71-.94,5.54-1.32,8.49-1.15,1.48.12,2.65.4,3.52.84.87.44,1.53.92,1.98,1.45.45.53.77,1.09.94,1.68.17.59.28,1.09.3,1.5.14,2.23-.66,4.47-2.38,6.71-1.72,2.24-3.88,4.22-6.46,5.96-2.59,1.73-5.36,3.06-8.32,3.97-2.95.91-5.6,1.13-7.94.64-.93,3.07-1.24,5.5-.92,7.3.32,1.73,1.05,2.82,2.2,3.28,1.15.46,2.55.44,4.2-.05,1.65-.48,3.49-1.4,5.5-2.75,2.02-1.35,4.02-2.92,6.01-4.72,1.93-1.66,3.82-3.63,5.68-5.91,1.86-2.28,3.73-4.53,5.63-6.75,0,.07.1.26.3.56.19.3.34.7.44,1.18.1.49.08,1.06-.05,1.74-.13.67-.56,1.42-1.28,2.23-3.66,4.35-7.1,7.94-10.32,10.76-3.22,2.82-6.81,5.23-10.74,7.22Zm7.92-33.87c-1.23.43-2.5,1.22-3.79,2.38-1.29,1.17-2.56,2.54-3.79,4.12-1.23,1.58-2.37,3.31-3.41,5.19-1.04,1.89-1.92,3.76-2.65,5.62,1.85-.67,3.74-1.61,5.66-2.81,1.92-1.2,3.68-2.51,5.27-3.94,1.59-1.43,2.89-2.87,3.88-4.33,1-1.46,1.49-2.82,1.49-4.08-.02-.28-.02-.59,0-.95.01-.35-.08-.66-.27-.93-.19-.27-.46-.44-.82-.53-.36-.08-.88,0-1.56.25Z"/>
          <path class="cls-5" d="m433.58,130.69l1.1-.91c3.27-2.58,6.86-4.06,10.76-4.43,2.65-.23,4.48.53,5.49,2.29,1.02,1.76,1.36,4.03,1.04,6.81-.32,2.79-1.17,5.85-2.54,9.19-1.37,3.34-3.09,6.47-5.15,9.4-2.06,2.93-4.36,5.39-6.9,7.4-2.54,2.01-5.1,3.09-7.68,3.25-1.68.03-3.07-.41-4.18-1.32-1.11-.91-1.94-1.98-2.51-3.21-.56,1.15-1.1,2.06-1.62,2.72-.52.66-1.07,1.18-1.64,1.57-.57.39-1.19.63-1.85.74-.66.11-1.37.19-2.14.23-1.19,0-2.12-.36-2.8-1.09-.67-.73-.77-1.81-.3-3.24.41-1.35,1.03-3.23,1.86-5.63.83-2.4,1.79-5.08,2.87-8.05,1.08-2.97,2.24-6.07,3.48-9.3,1.24-3.23,2.48-6.35,3.74-9.36,1.25-3.02,2.45-5.82,3.58-8.41,1.14-2.59,2.14-4.71,3.02-6.38.5-1.01,1.29-1.72,2.39-2.14,1.09-.42,2.18-.64,3.27-.67,1.08-.03,2.02.09,2.8.35.79.27,1.12.58,1,.94l-7.13,19.23Zm6.27-.59c-.42.03-.7.06-.83.1-.14.04-.26.09-.36.13-.1.04-.22.12-.35.23-.13.11-.37.28-.7.52-.54.31-1.01.73-1.39,1.24-.39.51-.65,1.06-.79,1.62-.14.57-.07,1.12.21,1.67.28.54.81.97,1.6,1.27-1.58.45-2.83.61-3.75.49-.92-.12-1.6-.38-2.04-.77l-6.12,16.75c-.26,1.56-.22,2.78.12,3.67.33.89,1.06,1.27,2.17,1.13.91-.06,2.01-.8,3.33-2.25,1.31-1.44,2.62-3.2,3.93-5.28,1.31-2.07,2.54-4.32,3.69-6.73,1.15-2.42,2.03-4.64,2.64-6.67.61-2.03.84-3.73.69-5.08-.15-1.35-.82-2.03-2.01-2.03Z"/>
          <path class="cls-5" d="m488.27,126.84c.17,1.67-.61,3.26-2.34,4.76,1.48.12,2.19.39,2.15.81-1,3.21-2.14,6.27-3.43,9.19-1.29,2.91-2.37,5.87-3.24,8.86-.83,2.43-.94,3.59-.31,3.48.62-.11,1.72-1,3.3-2.67,1.58-1.67,3.48-3.87,5.69-6.59,2.21-2.72,4.5-5.49,6.85-8.29.08.14.21.35.41.66.19.3.32.68.38,1.13.06.45,0,1.02-.16,1.69-.17.68-.58,1.39-1.24,2.12-1.83,2.14-3.45,4.04-4.85,5.7-1.41,1.66-2.75,3.16-4.03,4.5-1.28,1.34-2.61,2.57-3.98,3.71-1.37,1.13-2.89,2.31-4.56,3.53-.94.69-1.93,1.15-2.96,1.39-1.04.24-2.01.3-2.93.18-.92-.12-1.7-.4-2.36-.85-.66-.45-1.04-1.02-1.15-1.71-.07-1.11.06-2.52.37-4.22-2.05,1.95-4.26,3.71-6.61,5.29-2.36,1.58-4.47,2.42-6.36,2.54-1.81.11-3.21-.17-4.2-.85-.99-.67-1.58-1.6-1.8-2.78-.32-1.87-.26-4.03.18-6.47.45-2.44,1.26-4.94,2.43-7.5,1.17-2.56,2.65-5.08,4.42-7.57,1.77-2.49,3.79-4.73,6.05-6.72,2.26-1.99,4.73-3.61,7.42-4.86,2.69-1.25,5.5-1.93,8.43-2.03,2.09-.13,3.96.09,5.61.66,1.64.57,2.58,1.54,2.8,2.93Zm-14.91,7c2.21-.48,3.97-1.24,5.27-2.26,1.3-1.02,2.19-2.18,2.68-3.47.11-.56-.07-1.13-.52-1.7-.45-.57-1.36-.56-2.73,0-1.23.43-2.51,1.31-3.83,2.65-1.32,1.34-2.59,2.92-3.81,4.75-1.22,1.83-2.36,3.78-3.42,5.88-1.06,2.1-1.99,4.15-2.78,6.15-.79,2.01-1.39,3.83-1.82,5.47-.43,1.64-.61,2.91-.56,3.81.04.7.43.96,1.15.77.72-.18,1.55-.62,2.49-1.31.94-.69,1.96-1.52,3.05-2.49,1.1-.98,2.04-1.94,2.82-2.9.83-2.43,1.75-4.9,2.75-7.41,1-2.51,1.93-4.81,2.78-6.89-1.75-.03-2.93-.38-3.53-1.05Z"/>
          <path class="cls-5" d="m501.07,149.27c-.83,2.43-.9,3.57-.21,3.43.69-.15,1.84-1.06,3.46-2.73,1.61-1.67,3.58-3.88,5.9-6.61,2.32-2.73,4.65-5.5,7-8.3,0,.07.1.26.3.56.19.3.34.7.44,1.18.1.48.08,1.06-.05,1.74-.13.67-.56,1.42-1.28,2.23-1.9,2.15-3.55,4.05-4.96,5.71-1.41,1.66-2.75,3.16-4.03,4.5-1.28,1.34-2.59,2.57-3.92,3.7-1.33,1.13-2.84,2.31-4.51,3.53-.94.69-1.98,1.12-3.12,1.29-1.14.17-2.22.12-3.21-.17-1-.29-1.8-.77-2.4-1.43-.6-.66-.83-1.52-.68-2.58.3-2.05.78-4.12,1.46-6.23.68-2.1,1.43-4.41,2.26-6.91,1.14-3.15,2.34-6.35,3.62-9.62,1.27-3.26,2.52-6.4,3.73-9.42,1.22-3.01,2.38-5.8,3.48-8.35,1.11-2.55,2.09-4.7,2.97-6.43.57-1.02,1.4-1.73,2.5-2.15,1.09-.42,2.17-.64,3.21-.67,1.05-.03,1.96.09,2.75.36.79.27,1.12.58,1,.94l-15.69,42.43Z"/>
          <path class="cls-5" d="m521.37,148.03c-.83,2.43-.9,3.57-.21,3.43.69-.15,1.84-1.06,3.46-2.73,1.61-1.67,3.58-3.88,5.9-6.61,2.32-2.73,4.65-5.5,7-8.3,0,.07.1.26.3.56.19.3.34.7.44,1.18.1.48.08,1.06-.05,1.74-.13.67-.56,1.42-1.28,2.23-1.9,2.15-3.55,4.05-4.96,5.71-1.41,1.66-2.75,3.16-4.03,4.5-1.28,1.34-2.59,2.57-3.92,3.7-1.33,1.13-2.84,2.31-4.51,3.53-.94.69-1.98,1.12-3.12,1.29s-2.22.12-3.21-.17c-1-.29-1.8-.77-2.4-1.43-.6-.66-.83-1.52-.68-2.58.29-2.05.78-4.12,1.46-6.23.68-2.1,1.43-4.41,2.26-6.91,1.14-3.15,2.34-6.35,3.62-9.62,1.27-3.26,2.51-6.4,3.73-9.42,1.22-3.01,2.38-5.8,3.48-8.35,1.11-2.55,2.09-4.7,2.97-6.43.57-1.01,1.4-1.73,2.5-2.15,1.09-.42,2.17-.64,3.21-.67,1.05-.03,1.96.09,2.75.36.79.27,1.12.58,1,.94l-15.69,42.43Z"/>
        </g>
        <g>
          <path class="cls-5" d="m380.94,193h6.3l2.27,12.02,3.32-12.02h6.28l3.33,12.01,2.27-12.01h6.27l-4.73,21.48h-6.51l-3.77-13.52-3.75,13.52h-6.51l-4.78-21.48Z"/>
          <path class="cls-5" d="m413.14,193h17.79v4.59h-11.13v3.41h10.33v4.38h-10.33v4.23h11.46v4.86h-18.11v-21.48Z"/>
          <path class="cls-5" d="m448.03,210.94h-7.54l-1.05,3.55h-6.78l8.07-21.48h7.24l8.07,21.48h-6.95l-1.07-3.55Zm-1.38-4.64l-2.37-7.72-2.35,7.72h4.72Z"/>
          <path class="cls-5" d="m454.59,193h20.17v5.3h-6.77v16.18h-6.64v-16.18h-6.77v-5.3Z"/>
          <path class="cls-5" d="m477.8,193h6.64v7.52h7.25v-7.52h6.67v21.48h-6.67v-8.69h-7.25v8.69h-6.64v-21.48Z"/>
          <path class="cls-5" d="m502.75,193h17.79v4.59h-11.13v3.41h10.33v4.38h-10.33v4.23h11.46v4.86h-18.11v-21.48Z"/>
          <path class="cls-5" d="m524.52,214.48v-21.48h11.06c2.05,0,3.62.18,4.7.53,1.08.35,1.96,1,2.62,1.96.66.95,1,2.11,1,3.48,0,1.19-.25,2.22-.76,3.08-.51.86-1.21,1.57-2.1,2.1-.57.34-1.34.62-2.33.85.79.26,1.37.53,1.73.79.24.18.6.55,1.06,1.13.46.58.77,1.02.93,1.33l3.21,6.22h-7.5l-3.55-6.56c-.45-.85-.85-1.4-1.2-1.66-.48-.33-1.02-.5-1.63-.5h-.59v8.72h-6.67Zm6.67-12.78h2.8c.3,0,.89-.1,1.76-.29.44-.09.8-.31,1.08-.67.28-.36.42-.78.42-1.25,0-.69-.22-1.23-.66-1.6-.44-.37-1.27-.56-2.48-.56h-2.92v4.37Z"/>
        </g>
        <g>
          <path class="cls-5" d="m381.91,223.63h20.17v5.3h-6.77v16.18h-6.64v-16.18h-6.77v-5.3Z"/>
          <path class="cls-5" d="m405.59,245.11v-21.48h11.06c2.05,0,3.62.18,4.7.53,1.08.35,1.96,1,2.62,1.96.66.95,1,2.11,1,3.48,0,1.19-.25,2.22-.76,3.08-.51.86-1.21,1.57-2.1,2.1-.57.34-1.34.62-2.33.85.79.26,1.37.53,1.73.79.24.18.6.55,1.06,1.13.46.58.77,1.02.93,1.33l3.21,6.22h-7.5l-3.55-6.56c-.45-.85-.85-1.4-1.2-1.66-.48-.33-1.02-.5-1.63-.5h-.59v8.72h-6.67Zm6.67-12.78h2.8c.3,0,.89-.1,1.76-.29.44-.09.8-.31,1.08-.67s.42-.78.42-1.25c0-.69-.22-1.23-.66-1.6-.44-.37-1.27-.56-2.48-.56h-2.92v4.37Z"/>
          <path class="cls-5" d="m442.47,241.56h-7.54l-1.05,3.55h-6.78l8.07-21.48h7.24l8.07,21.48h-6.95l-1.07-3.55Zm-1.38-4.64l-2.37-7.72-2.35,7.72h4.72Z"/>
          <path class="cls-5" d="m466.78,236.32l5.82,1.76c-.39,1.63-1.01,2.99-1.85,4.09s-1.88,1.92-3.13,2.48c-1.25.56-2.83.83-4.75.83-2.33,0-4.24-.34-5.72-1.02-1.48-.68-2.76-1.87-3.83-3.58s-1.61-3.89-1.61-6.56c0-3.55.94-6.28,2.83-8.19,1.89-1.91,4.56-2.86,8.02-2.86,2.71,0,4.83.55,6.38,1.64,1.55,1.09,2.7,2.77,3.45,5.04l-5.86,1.3c-.21-.65-.42-1.13-.65-1.44-.37-.51-.83-.9-1.36-1.17-.54-.27-1.14-.41-1.8-.41-1.5,0-2.66.61-3.46,1.82-.61.9-.91,2.31-.91,4.23,0,2.38.36,4.01,1.08,4.9.72.88,1.74,1.32,3.05,1.32s2.23-.36,2.88-1.07,1.12-1.75,1.41-3.11Z"/>
          <path class="cls-5" d="m476.27,223.63h6.64v8.12l6.95-8.12h8.83l-7.84,8.11,8.19,13.37h-8.17l-4.53-8.83-3.43,3.59v5.24h-6.64v-21.48Z"/>
          <path class="cls-5" d="m501.64,223.63h17.79v4.59h-11.13v3.41h10.33v4.38h-10.33v4.23h11.46v4.86h-18.11v-21.48Z"/>
          <path class="cls-5" d="m523.84,245.11v-21.48h11.06c2.05,0,3.62.18,4.7.53,1.08.35,1.96,1,2.62,1.96.66.95,1,2.11,1,3.48,0,1.19-.25,2.22-.76,3.08-.51.86-1.21,1.57-2.1,2.1-.57.34-1.34.62-2.33.85.79.26,1.37.53,1.73.79.24.18.6.55,1.06,1.13.46.58.77,1.02.93,1.33l3.21,6.22h-7.5l-3.55-6.56c-.45-.85-.85-1.4-1.2-1.66-.48-.33-1.02-.5-1.63-.5h-.59v8.72h-6.67Zm6.67-12.78h2.8c.3,0,.89-.1,1.76-.29.44-.09.8-.31,1.08-.67.28-.36.42-.78.42-1.25,0-.69-.22-1.23-.66-1.6-.44-.37-1.27-.56-2.48-.56h-2.92v4.37Z"/>
        </g>
      </g>
      <g>
        <path class="cls-3" d="m764.06,1.78s-24.34,26.77-44.54,71c-31.59,69.17-53.06,181.05,44.54,300"/>
        <g>
          <path class="cls-2" d="m767.82,13.22c-4.72.41-9.52,1.01-14.31,1.76-.69-4.82-1.24-9.69-1.62-14.67"/>
          <path class="cls-2" d="m756.87,27.87c-4.72.78-9.44,1.72-14.21,2.75-.96-4.75-1.87-9.59-2.62-14.47"/>
          <path class="cls-2" d="m746.8,43.3c-2.32.55-4.66,1.11-7.01,1.7-2.35.59-4.65,1.24-7,1.89-.62-2.34-1.26-4.73-1.83-7.1-.57-2.37-1.12-4.77-1.66-7.19"/>
          <path class="cls-2" d="m737.65,59.32c-4.64,1.32-9.15,2.83-13.8,4.39-1.48-4.59-3-9.33-4.28-14.06"/>
          <path class="cls-2" d="m729.42,75.83c-2.29.79-4.49,1.65-6.75,2.51-2.25.87-4.53,1.75-6.75,2.69-.93-2.27-1.77-4.54-2.62-6.84-.84-2.29-1.72-4.64-2.49-6.96"/>
          <path class="cls-2" d="m722.2,92.78c-2.19.94-4.42,1.9-6.61,2.9-2.18,1.01-4.36,2.04-6.56,3.1-1.03-2.2-2.04-4.42-3.05-6.67-.99-2.25-1.93-4.5-2.88-6.79"/>
          <path class="cls-2" d="m716.03,110.11c-2.17,1.06-4.24,2.18-6.38,3.31-2.11,1.14-4.29,2.29-6.38,3.5-1.2-2.14-2.3-4.27-3.44-6.46-1.11-2.17-2.28-4.4-3.33-6.61"/>
          <path class="cls-2" d="m711,127.78c-4.08,2.42-8.26,4.94-12.26,7.64-2.69-4.1-5.14-8.28-7.63-12.6"/>
          <path class="cls-2" d="m707.18,145.71c-1.97,1.34-3.94,2.71-5.92,4.12-1.93,1.41-3.86,2.86-5.79,4.34-1.45-1.95-2.9-3.93-4.34-5.94-1.38-2-2.76-4.04-4.14-6.11"/>
          <path class="cls-2" d="m704.62,163.84c-3.8,2.94-7.43,6.04-11.09,9.26-3.16-3.67-6.34-7.49-9.31-11.42"/>
          <path class="cls-2" d="m703.36,182.08c-3.6,3.21-6.94,6.56-10.37,10.05-3.4-3.43-6.89-7-10.12-10.71"/>
          <path class="cls-2" d="m703.46,200.35c-3.35,3.47-6.43,7.06-9.59,10.8-3.65-3.17-7.41-6.46-10.9-9.92"/>
          <path class="cls-2" d="m704.94,218.56c-3.07,3.71-5.91,7.53-8.75,11.49-3.91-2.88-7.87-5.89-11.62-9.07"/>
          <path class="cls-2" d="m707.77,236.6c-1.36,1.96-2.71,3.95-4.05,5.98-1.29,2.01-2.55,4.06-3.81,6.14-2.06-1.29-4.14-2.61-6.21-3.96-2.01-1.37-4.03-2.77-6.05-4.21"/>
          <path class="cls-2" d="m711.94,254.41c-1.2,2.05-2.38,4.13-3.56,6.25l-1.75,3.2-1.64,3.21-3.26-1.72-3.18-1.8c-2.12-1.21-4.25-2.46-6.38-3.74"/>
          <path class="cls-2" d="m717.36,271.89c-2.06,4.25-4.07,8.63-6.04,13.13-4.39-1.99-8.82-4.1-13.3-6.32"/>
          <path class="cls-2" d="m724.07,288.96c-1.91,4.45-3.5,8.9-5.14,13.51-4.54-1.68-9.23-3.42-13.7-5.4"/>
          <path class="cls-2" d="m731.89,305.59c-.75,2.26-1.49,4.54-2.22,6.86-.73,2.31-1.45,4.66-2.07,6.97-2.38-.66-4.67-1.4-6.99-2.17-2.32-.76-4.65-1.55-7-2.36"/>
          <path class="cls-2" d="m740.73,321.74c-.67,2.34-1.22,4.64-1.78,6.97-.56,2.34-1.1,4.69-1.63,7.07-2.36-.56-4.73-1.14-7.12-1.74-2.39-.6-4.81-1.21-7.14-1.91"/>
          <path class="cls-2" d="m750.56,337.36c-.94,4.67-1.9,9.47-2.67,14.26-4.81-.83-9.53-1.84-14.39-2.88"/>
          <path class="cls-2" d="m761.24,352.48c-.79,4.79-1.35,9.52-1.89,14.36-4.83-.6-9.75-1.24-14.55-2.09"/>
        </g>
      </g>
      <path class="cls-3" d="m6.94,1.78s24.34,26.77,44.54,71c31.59,69.17,53.06,181.05-44.54,300"/>
      <g>
        <path class="cls-2" d="m19.11.31c-.38,4.98-.93,9.85-1.62,14.67-4.8-.75-9.59-1.34-14.31-1.76"/>
        <path class="cls-2" d="m30.96,16.15c-.75,4.88-1.65,9.72-2.62,14.47-4.77-1.03-9.48-1.97-14.21-2.75"/>
        <path class="cls-2" d="m41.7,32.61c-.54,2.42-1.09,4.82-1.66,7.19-.57,2.38-1.21,4.76-1.83,7.1-2.35-.65-4.66-1.3-7-1.89-2.35-.59-4.69-1.16-7.01-1.7"/>
        <path class="cls-2" d="m51.44,49.65c-1.28,4.73-2.8,9.47-4.28,14.06-4.65-1.56-9.16-3.07-13.8-4.39"/>
        <path class="cls-2" d="m60.2,67.23c-.77,2.32-1.65,4.66-2.49,6.96-.85,2.3-1.7,4.57-2.62,6.84-2.22-.94-4.5-1.82-6.75-2.69-2.26-.86-4.47-1.72-6.75-2.51"/>
        <path class="cls-2" d="m67.9,85.31c-.95,2.29-1.89,4.54-2.88,6.79-1.01,2.25-2.02,4.47-3.05,6.67-2.2-1.06-4.38-2.09-6.56-3.1-2.19-1-4.42-1.96-6.61-2.9"/>
        <path class="cls-2" d="m74.5,103.86c-1.05,2.21-2.21,4.44-3.33,6.61-1.14,2.18-2.24,4.32-3.44,6.46-2.09-1.21-4.26-2.36-6.38-3.5-2.14-1.13-4.21-2.25-6.38-3.31"/>
        <path class="cls-2" d="m79.89,122.81c-2.49,4.32-4.95,8.5-7.63,12.6-4-2.69-8.19-5.22-12.26-7.64"/>
        <path class="cls-2" d="m84,142.12c-1.37,2.07-2.75,4.1-4.14,6.11-1.44,2.01-2.89,3.99-4.34,5.94-1.94-1.48-3.86-2.92-5.79-4.34-1.98-1.4-3.96-2.78-5.92-4.12"/>
        <path class="cls-2" d="m86.78,161.69c-2.97,3.93-6.14,7.74-9.31,11.42-3.66-3.23-7.28-6.32-11.09-9.26"/>
        <path class="cls-2" d="m88.13,181.43c-3.23,3.7-6.72,7.28-10.12,10.71-3.44-3.49-6.78-6.84-10.37-10.05"/>
        <path class="cls-2" d="m88.03,201.23c-3.49,3.45-7.25,6.75-10.9,9.92-3.16-3.74-6.24-7.33-9.59-10.8"/>
        <path class="cls-2" d="m86.43,220.98c-3.75,3.18-7.71,6.19-11.62,9.07-2.84-3.96-5.67-7.78-8.75-11.49"/>
        <path class="cls-2" d="m83.35,240.54c-2.02,1.44-4.04,2.84-6.05,4.21-2.07,1.36-4.15,2.68-6.21,3.96-1.26-2.08-2.52-4.12-3.81-6.14-1.34-2.03-2.69-4.02-4.05-5.98"/>
        <path class="cls-2" d="m78.84,259.81c-2.14,1.28-4.26,2.53-6.38,3.74l-3.18,1.8-3.26,1.72-1.64-3.21-1.75-3.2c-1.18-2.12-2.37-4.2-3.56-6.25"/>
        <path class="cls-2" d="m72.98,278.69c-4.48,2.23-8.91,4.34-13.3,6.32-1.97-4.5-3.99-8.87-6.04-13.13"/>
        <path class="cls-2" d="m65.76,297.06c-4.47,1.98-9.16,3.72-13.7,5.4-1.64-4.6-3.23-9.06-5.14-13.51"/>
        <path class="cls-2" d="m57.39,314.89c-2.35.81-4.68,1.6-7,2.36-2.32.76-4.61,1.5-6.99,2.17-.61-2.32-1.34-4.66-2.07-6.97-.73-2.31-1.47-4.6-2.22-6.86"/>
        <path class="cls-2" d="m47.95,332.14c-2.33.7-4.76,1.31-7.14,1.91-2.39.6-4.76,1.18-7.12,1.74-.53-2.38-1.07-4.74-1.63-7.07-.56-2.34-1.11-4.64-1.78-6.97"/>
        <path class="cls-2" d="m37.5,348.74c-4.86,1.04-9.58,2.05-14.39,2.88-.77-4.79-1.73-9.59-2.67-14.26"/>
        <path class="cls-2" d="m26.2,364.74c-4.8.86-9.72,1.49-14.55,2.09-.54-4.83-1.09-9.57-1.89-14.36"/>
      </g>
    </g>
    <rect class="cls-1" y="1" width="771" height="372"/>
  </g>
</svg>